<?xml version="1.0" standalone="no"?>
<!DOCTYPE svg PUBLIC "-//W3C//DTD SVG 20010904//EN"
 "http://www.w3.org/TR/2001/REC-SVG-20010904/DTD/svg10.dtd">
<svg version="1.0" xmlns="http://www.w3.org/2000/svg"
 width="345.000000pt" height="348.000000pt" viewBox="0 0 345.000000 348.000000"
 preserveAspectRatio="xMidYMid meet">

<g transform="translate(0.000000,348.000000) scale(0.100000,-0.100000)"
fill="#000000" stroke="none">
<path d="M2315 3290 c-77 -31 -127 -176 -124 -361 1 -96 8 -90 43 45 15 54 31
107 37 118 17 32 2 33 -16 1 l-16 -28 6 40 c11 64 51 126 97 149 29 15 37 46
11 45 -10 0 -27 -4 -38 -9z"/>
<path d="M783 2953 c15 -2 37 -2 50 0 12 2 0 4 -28 4 -27 0 -38 -2 -22 -4z"/>
<path d="M918 2943 c6 -2 18 -2 25 0 6 3 1 5 -13 5 -14 0 -19 -2 -12 -5z"/>
<path d="M1635 2890 c48 -12 186 -60 200 -70 6 -4 22 -10 37 -14 15 -3 37 -16
48 -28 11 -12 20 -19 20 -16 0 4 13 -7 29 -23 16 -16 40 -29 52 -29 21 0 20 2
-11 25 -19 14 -38 25 -42 25 -4 0 -8 5 -8 10 0 17 16 11 70 -25 29 -20 47 -28
39 -18 -12 16 -11 16 16 -1 75 -49 220 -182 258 -239 8 -12 17 -20 21 -17 11
11 -137 172 -214 233 -140 111 -319 182 -480 192 -64 4 -69 3 -35 -5z"/>
<path d="M718 2872 c-10 -4 19 -7 65 -7 50 -1 70 2 52 6 -40 9 -96 9 -117 1z"/>
<path d="M603 2863 c9 -2 23 -2 30 0 6 3 -1 5 -18 5 -16 0 -22 -2 -12 -5z"/>
<path d="M2937 2856 c-61 -22 -105 -63 -184 -170 -103 -138 -119 -157 -167
-189 -39 -28 -40 -29 -11 -22 40 8 116 45 111 53 -2 4 11 22 29 41 18 18 31
40 28 47 -3 8 2 17 11 20 9 4 26 24 37 45 11 22 34 52 51 67 17 15 37 33 44
40 7 6 15 12 18 12 2 0 17 5 33 12 15 6 33 12 38 12 117 15 136 19 132 30 -5
16 -125 18 -170 2z"/>
<path d="M528 2853 c7 -3 16 -2 19 1 4 3 -2 6 -13 5 -11 0 -14 -3 -6 -6z"/>
<path d="M958 2843 c7 -3 16 -2 19 1 4 3 -2 6 -13 5 -11 0 -14 -3 -6 -6z"/>
<path d="M580 2761 c-36 -4 27 -6 140 -6 113 0 185 3 160 7 -53 8 -207 7 -300
-1z"/>
<path d="M478 2743 c6 -2 18 -2 25 0 6 3 1 5 -13 5 -14 0 -19 -2 -12 -5z"/>
<path d="M938 2743 c6 -2 18 -2 25 0 6 3 1 5 -13 5 -14 0 -19 -2 -12 -5z"/>
<path d="M2040 2691 c0 -5 31 -42 68 -82 77 -85 140 -177 177 -264 14 -33 30
-68 35 -78 6 -10 8 -22 5 -27 -4 -6 -1 -10 5 -10 6 0 8 -4 5 -10 -3 -5 1 -35
9 -67 25 -97 37 -266 26 -367 -39 -349 -204 -628 -482 -817 -108 -74 -299
-147 -387 -150 -21 0 -22 -2 -8 -7 47 -19 366 35 352 58 -3 5 3 8 12 7 61 -4
328 170 309 202 -6 9 -17 3 -39 -18 -77 -73 -112 -101 -126 -101 -11 0 -4 12
19 33 52 48 160 174 160 186 0 14 90 155 101 159 5 2 9 9 9 15 0 7 18 59 39
117 41 111 72 249 76 340 6 131 -32 390 -56 390 -5 0 -9 5 -9 11 0 5 4 7 10 4
25 -15 -82 222 -123 271 -13 16 -34 46 -46 67 -12 20 -27 35 -32 32 -4 -3 -28
21 -51 54 -41 57 -58 73 -58 52z m-60 -1741 c0 -5 -5 -10 -11 -10 -5 0 -7 5
-4 10 3 6 8 10 11 10 2 0 4 -4 4 -10z m-30 -14 c0 -2 -7 -7 -16 -10 -8 -3 -12
-2 -9 4 6 10 25 14 25 6z"/>
<path d="M1345 2681 c-3 -6 -23 -11 -43 -11 -28 0 -33 -3 -22 -10 22 -14 56
-12 70 5 7 9 10 18 7 21 -3 3 -8 1 -12 -5z"/>
<path d="M585 2661 c-19 -8 168 -3 190 4 6 2 -30 3 -80 4 -49 0 -99 -4 -110
-8z"/>
<path d="M818 2653 c12 -2 30 -2 40 0 9 3 -1 5 -23 4 -22 0 -30 -2 -17 -4z"/>
<path d="M518 2643 c7 -3 16 -2 19 1 4 3 -2 6 -13 5 -11 0 -14 -3 -6 -6z"/>
<path d="M2120 2631 c0 -6 4 -13 10 -16 6 -3 7 1 4 9 -7 18 -14 21 -14 7z"/>
<path d="M1048 2613 c7 -3 16 -2 19 1 4 3 -2 6 -13 5 -11 0 -14 -3 -6 -6z"/>
<path d="M1448 2583 c-10 -2 -18 -9 -18 -14 0 -15 43 -7 48 9 4 12 0 13 -30 5z"/>
<path d="M686 2571 c-4 -5 3 -7 14 -4 23 6 26 13 6 13 -8 0 -17 -4 -20 -9z"/>
<path d="M1267 2566 c-4 -10 -1 -13 9 -9 7 3 14 9 14 14 0 14 -17 10 -23 -5z"/>
<path d="M1181 2504 c-18 -8 -42 -14 -53 -14 -10 0 -16 -5 -13 -10 6 -10 52
-4 70 10 6 4 19 10 30 12 11 2 15 6 10 10 -6 3 -25 0 -44 -8z"/>
<path d="M1377 2494 c-15 -13 -24 -24 -20 -24 4 0 1 -5 -7 -10 -8 -5 -10 -10
-5 -10 17 0 68 46 64 57 -2 7 -15 2 -32 -13z"/>
<path d="M1594 2496 c-4 -10 -18 -16 -36 -16 -17 0 -27 -4 -23 -10 11 -18 50
-11 63 11 7 12 11 23 8 26 -3 3 -8 -2 -12 -11z"/>
<path d="M1255 2440 c-15 -6 -8 -9 28 -9 30 -1 46 3 42 9 -7 12 -42 12 -70 0z"/>
<path d="M1478 2404 c-21 -21 -35 -26 -72 -26 -25 1 -46 -3 -46 -8 0 -15 67
-12 98 4 30 15 70 56 56 56 -5 0 -21 -12 -36 -26z"/>
<path d="M2381 2413 c7 -12 15 -20 18 -17 3 2 -3 12 -13 22 -17 16 -18 16 -5
-5z"/>
<path d="M518 2413 c7 -3 16 -2 19 1 4 3 -2 6 -13 5 -11 0 -14 -3 -6 -6z"/>
<path d="M1701 2394 c0 -11 3 -14 6 -6 3 7 2 16 -1 19 -3 4 -6 -2 -5 -13z"/>
<path d="M408 2393 c7 -3 16 -2 19 1 4 3 -2 6 -13 5 -11 0 -14 -3 -6 -6z"/>
<path d="M1670 2355 c-17 -10 -20 -14 -9 -15 9 0 22 7 29 15 15 18 12 18 -20
0z"/>
<path d="M1585 2321 c-7 -22 -24 -28 -90 -34 -25 -2 -14 -4 27 -5 65 -2 68 -1
74 23 8 31 -2 45 -11 16z"/>
<path d="M618 2323 c34 -2 88 -2 120 0 31 2 3 3 -63 3 -66 0 -92 -1 -57 -3z"/>
<path d="M435 2310 l-40 -7 35 -1 c19 0 55 3 80 7 l45 8 -40 0 c-22 0 -58 -3
-80 -7z"/>
<path d="M1050 2262 c0 -7 -15 -21 -32 -32 -33 -20 -33 -20 -7 -20 26 0 60 42
46 57 -4 3 -7 1 -7 -5z"/>
<path d="M1740 2230 c-21 -7 -21 -8 -5 -9 11 0 27 4 35 9 18 11 5 11 -30 0z"/>
<path d="M1859 2215 c-4 -11 -7 -36 -7 -55 -1 -33 0 -33 9 -10 5 13 9 38 7 55
-3 24 -4 26 -9 10z"/>
<path d="M1663 2195 c-20 -23 -12 -34 13 -17 8 5 17 43 10 42 -1 0 -11 -12
-23 -25z"/>
<path d="M540 2205 c-8 -2 -48 -9 -88 -15 -40 -7 -71 -14 -68 -17 3 -3 36 0
73 7 37 7 131 16 208 20 l140 7 -125 0 c-69 0 -132 -1 -140 -2z"/>
<path d="M1155 2184 c-27 -22 -28 -24 -9 -24 23 0 48 23 42 39 -1 5 -16 -1
-33 -15z"/>
<path d="M1540 2196 c8 -7 33 -16 55 -20 42 -6 31 1 -35 22 -29 10 -32 10 -20
-2z"/>
<path d="M338 2163 c6 -2 18 -2 25 0 6 3 1 5 -13 5 -14 0 -19 -2 -12 -5z"/>
<path d="M989 2118 c-7 -18 -15 -37 -17 -43 -2 -5 2 -3 11 5 14 14 32 70 23
70 -2 0 -10 -15 -17 -32z"/>
<path d="M1300 2132 c0 -6 -11 -14 -25 -18 -32 -8 -33 -24 -1 -24 16 0 26 7
29 22 4 12 4 24 2 27 -3 2 -5 -1 -5 -7z"/>
<path d="M1795 2100 c3 -5 12 -10 20 -10 8 0 17 5 20 10 4 6 -5 10 -20 10 -15
0 -24 -4 -20 -10z"/>
<path d="M583 2093 c15 -2 39 -2 55 0 15 2 2 4 -28 4 -30 0 -43 -2 -27 -4z"/>
<path d="M1110 2085 c0 -8 5 -15 10 -15 6 0 10 7 10 15 0 8 -4 15 -10 15 -5 0
-10 -7 -10 -15z"/>
<path d="M503 2083 c9 -2 23 -2 30 0 6 3 -1 5 -18 5 -16 0 -22 -2 -12 -5z"/>
<path d="M1741 2076 c-7 -8 -22 -17 -34 -19 -15 -3 -11 -5 11 -6 21 -1 35 4
39 14 8 22 -2 28 -16 11z"/>
<path d="M1911 2072 c0 -13 -6 -32 -11 -43 -7 -13 -7 -19 -1 -19 13 0 24 42
18 67 -4 14 -5 13 -6 -5z"/>
<path d="M1386 2045 c-15 -12 -24 -25 -18 -29 13 -8 56 27 51 41 -2 7 -16 2
-33 -12z"/>
<path d="M1648 2063 c6 -2 18 -2 25 0 6 3 1 5 -13 5 -14 0 -19 -2 -12 -5z"/>
<path d="M1095 2050 c-3 -5 -1 -10 4 -10 6 0 11 5 11 10 0 6 -2 10 -4 10 -3 0
-8 -4 -11 -10z"/>
<path d="M902 2035 c-44 -23 -45 -33 -3 -22 39 11 50 21 34 30 -5 2 -19 -2
-31 -8z"/>
<path d="M1015 2010 c-28 -11 -41 -19 -29 -20 25 0 85 19 99 31 15 14 -15 9
-70 -11z"/>
<path d="M2656 2022 c-45 -19 17 -27 199 -24 219 3 365 -17 456 -63 32 -16 56
-22 61 -17 12 12 5 16 -78 48 -122 46 -187 55 -409 60 -115 2 -219 0 -229 -4z"/>
<path d="M1341 1974 c0 -11 3 -14 6 -6 3 7 2 16 -1 19 -3 4 -6 -2 -5 -13z"/>
<path d="M1864 1975 c-16 -12 -16 -14 -3 -15 9 0 22 7 29 15 16 19 0 19 -26 0z"/>
<path d="M1115 1970 c-16 -7 -13 -9 17 -9 20 -1 40 4 43 9 7 12 -32 12 -60 0z"/>
<path d="M1500 1940 c-8 -5 -18 -6 -24 -3 -5 3 -6 1 -2 -5 9 -15 33 -15 41 -1
10 15 2 20 -15 9z"/>
<path d="M1721 1939 c21 -11 88 -15 91 -5 2 5 -21 10 -51 11 -29 1 -47 -1 -40
-6z"/>
<path d="M1936 1907 c-4 -27 -5 -51 -2 -54 7 -7 19 61 14 84 -2 10 -8 -4 -12
-30z"/>
<path d="M1238 1918 c23 -8 39 -8 55 0 19 9 13 11 -33 10 -53 0 -54 -1 -22
-10z"/>
<path d="M1440 1884 c0 -8 5 -12 10 -9 6 3 10 10 10 16 0 5 -4 9 -10 9 -5 0
-10 -7 -10 -16z"/>
<path d="M588 1863 c12 -2 30 -2 40 0 9 3 -1 5 -23 4 -22 0 -30 -2 -17 -4z"/>
<path d="M1353 1853 c9 -2 25 -2 35 0 9 3 1 5 -18 5 -19 0 -27 -2 -17 -5z"/>
<path d="M1570 1840 c0 -5 7 -10 15 -10 8 0 15 5 15 10 0 6 -7 10 -15 10 -8 0
-15 -4 -15 -10z"/>
<path d="M1895 1840 c-3 -5 -1 -10 4 -10 6 0 11 5 11 10 0 6 -2 10 -4 10 -3 0
-8 -4 -11 -10z"/>
<path d="M1836 1807 c-17 -12 -17 -14 -3 -20 11 -4 21 1 27 13 12 23 2 26 -24
7z"/>
<path d="M1950 1795 c-7 -9 -11 -17 -9 -20 3 -2 10 5 17 15 14 24 10 26 -8 5z"/>
<path d="M753 1783 c9 -2 25 -2 35 0 9 3 1 5 -18 5 -19 0 -27 -2 -17 -5z"/>
<path d="M1455 1780 c3 -6 20 -10 37 -10 38 0 34 5 -10 13 -21 4 -31 3 -27 -3z"/>
<path d="M540 1770 l-25 -8 25 0 c14 0 39 4 55 8 l30 8 -30 0 c-16 0 -41 -4
-55 -8z"/>
<path d="M1088 1753 c-3 -12 -16 -23 -29 -25 -21 -4 -22 -5 -6 -13 23 -10 50
15 45 41 -3 17 -4 17 -10 -3z"/>
<path d="M1661 1756 c-7 -8 -8 -17 -3 -20 6 -3 13 1 16 10 9 23 2 28 -13 10z"/>
<path d="M946 1745 c-10 -8 -23 -12 -29 -8 -6 3 -7 1 -3 -5 10 -17 46 -15 53
3 8 22 1 26 -21 10z"/>
<path d="M1202 1714 c-6 -11 -17 -15 -31 -11 -11 3 -19 1 -15 -4 3 -5 18 -9
35 -9 22 0 29 5 29 20 0 24 -6 25 -18 4z"/>
<path d="M1611 1701 c-8 -5 -21 -7 -30 -4 -13 5 -13 3 -4 -7 13 -14 63 -6 63
10 0 12 -11 13 -29 1z"/>
<path d="M625 1666 c-67 -16 -215 -88 -240 -117 -22 -24 -10 -19 40 16 44 32
149 75 229 96 39 9 60 17 46 17 -14 0 -48 -5 -75 -12z"/>
<path d="M1303 1673 c-20 -8 -15 -23 7 -23 11 0 20 7 20 15 0 15 -6 17 -27 8z"/>
<path d="M1872 1667 c-9 -11 -10 -17 -2 -22 15 -9 23 -1 18 21 -3 15 -4 16
-16 1z"/>
<path d="M947 1643 c-4 -3 -7 -11 -7 -17 0 -6 5 -5 12 2 6 6 9 14 7 17 -3 3
-9 2 -12 -2z"/>
<path d="M1048 1619 c-10 -16 -28 -33 -40 -38 -13 -5 -30 -17 -38 -27 -8 -10
-10 -16 -5 -13 6 3 23 11 38 19 25 13 74 76 65 85 -2 2 -11 -10 -20 -26z"/>
<path d="M1956 1615 c-9 -26 -7 -32 5 -12 6 10 9 21 6 23 -2 3 -7 -2 -11 -11z"/>
<path d="M1254 1586 c-16 -14 -46 -29 -65 -34 l-34 -10 35 -1 c38 -1 74 18 90
50 14 24 12 24 -26 -5z"/>
<path d="M1395 1600 c3 -5 13 -10 21 -10 8 0 14 5 14 10 0 6 -9 10 -21 10 -11
0 -17 -4 -14 -10z"/>
<path d="M1657 1592 c20 -14 45 -12 50 4 2 6 -11 10 -32 10 -31 -1 -33 -3 -18
-14z"/>
<path d="M894 1559 c-21 -23 -30 -37 -19 -31 25 13 70 60 64 67 -3 2 -23 -14
-45 -36z"/>
<path d="M1102 1578 c-18 -11 -31 -22 -29 -25 9 -8 78 27 72 37 -3 5 -7 10 -8
9 -1 0 -17 -10 -35 -21z"/>
<path d="M688 1563 c7 -3 16 -2 19 1 4 3 -2 6 -13 5 -11 0 -14 -3 -6 -6z"/>
<path d="M595 1530 c-33 -15 -81 -47 -105 -69 l-45 -42 52 38 c29 21 81 52
115 70 78 40 65 43 -17 3z"/>
<path d="M1370 1552 c0 -5 -17 -13 -37 -19 l-38 -10 31 -2 c19 -1 38 6 49 19
10 11 13 20 7 20 -7 0 -12 -4 -12 -8z"/>
<path d="M1495 1551 c-6 -11 9 -23 19 -14 9 9 7 23 -3 23 -6 0 -12 -4 -16 -9z"/>
<path d="M2705 1520 c10 -11 24 -20 30 -20 7 0 18 -6 24 -14 6 -7 21 -11 34
-9 13 3 59 -14 115 -42 73 -37 113 -66 189 -138 56 -53 87 -77 73 -57 -77 109
-226 214 -383 269 -105 37 -105 37 -82 11z"/>
<path d="M1415 1490 c-16 -4 -23 -9 -15 -10 23 -4 53 1 70 11 12 7 11 8 -5 8
-11 -1 -33 -5 -50 -9z"/>
<path d="M1577 1485 c-4 -8 -2 -17 3 -20 6 -4 10 3 10 14 0 25 -6 27 -13 6z"/>
<path d="M1726 1488 c3 -4 14 -8 25 -8 11 0 18 4 14 9 -3 6 -14 9 -25 8 -10
-1 -16 -5 -14 -9z"/>
<path d="M1500 1430 c-12 -8 -10 -10 10 -10 14 0 32 5 40 10 12 8 10 10 -10
10 -14 0 -32 -5 -40 -10z"/>
<path d="M1895 1409 c-4 -6 -5 -12 -2 -15 2 -3 7 2 10 11 7 17 1 20 -8 4z"/>
<path d="M1580 1360 c11 -7 60 -2 60 6 0 2 -16 3 -35 2 -20 -1 -31 -4 -25 -8z"/>
<path d="M1815 1360 c3 -5 10 -10 16 -10 5 0 9 5 9 10 0 6 -7 10 -16 10 -8 0
-12 -4 -9 -10z"/>
<path d="M1666 1291 c-3 -5 1 -11 9 -15 9 -3 15 0 15 9 0 16 -16 20 -24 6z"/>
<path d="M1725 1190 c3 -5 8 -10 11 -10 2 0 4 5 4 10 0 6 -5 10 -11 10 -5 0
-7 -4 -4 -10z"/>
<path d="M2474 1143 c5 -20 33 -175 47 -268 5 -33 9 -88 9 -123 0 -47 3 -63
13 -59 18 6 13 187 -6 262 -9 33 -19 79 -22 103 -5 41 -29 102 -41 102 -3 0
-3 -8 0 -17z"/>
<path d="M3226 1132 c-3 -6 -1 -14 5 -17 14 -9 20 -2 10 14 -6 8 -11 9 -15 3z"/>
<path d="M1767 1103 c-4 -3 -7 -11 -7 -17 0 -6 5 -5 12 2 6 6 9 14 7 17 -3 3
-9 2 -12 -2z"/>
<path d="M780 706 c0 -8 -12 -16 -26 -18 -21 -2 -30 -13 -46 -53 -10 -27 -26
-79 -34 -115 -43 -185 -24 -188 36 -5 24 74 48 135 52 135 11 0 26 -38 47
-122 10 -37 20 -71 24 -75 16 -15 5 48 -23 127 -16 46 -27 86 -25 88 8 8 26
-42 75 -214 29 -98 56 -183 60 -189 4 -5 14 -29 24 -53 18 -48 6 -50 -14 -2
-20 48 -31 35 -15 -18 8 -26 15 -48 15 -49 0 -9 50 -1 50 8 0 24 -183 569
-191 569 -5 0 -9 -6 -9 -14z"/>
<path d="M2221 706 c-6 -7 -14 -44 -18 -80 -3 -37 -9 -68 -13 -71 -3 -2 -3
-30 0 -62 4 -32 3 -60 -1 -63 -10 -7 -29 -202 -22 -230 11 -41 20 -18 27 67
11 135 13 141 55 154 20 6 50 22 68 35 l32 24 20 -26 c11 -14 23 -34 26 -45 4
-11 11 -17 16 -13 5 3 6 11 2 17 -4 6 -8 20 -8 31 -1 10 -9 24 -18 31 -14 10
-15 16 -2 60 16 53 7 112 -20 135 -22 18 -29 6 -13 -22 13 -24 19 -140 6 -131
-5 2 -8 -1 -8 -8 0 -6 -8 -9 -19 -6 -13 3 -18 0 -15 -8 6 -15 -36 -43 -77 -52
l-30 -6 6 59 c4 33 10 91 13 129 l7 70 35 5 c27 4 31 7 17 13 -28 11 -53 8
-66 -7z"/>
<path d="M1218 693 c-15 -4 -18 -16 -18 -64 0 -72 16 -78 25 -9 l7 50 50 0
c29 0 62 -7 80 -17 30 -18 68 -78 68 -109 0 -10 3 -15 6 -11 12 12 -18 105
-39 125 -39 35 -120 51 -179 35z"/>
<path d="M1068 683 c-33 -8 -18 -23 22 -23 29 0 40 4 40 15 0 15 -25 18 -62 8z"/>
<path d="M1410 681 c0 -6 9 -29 20 -51 52 -102 -2 -210 -104 -210 -45 0 -60
21 -57 78 3 54 14 72 47 72 31 0 39 -17 18 -41 -16 -18 -16 -19 2 -19 26 0 44
19 44 46 0 31 -19 42 -63 36 -47 -5 -77 -41 -77 -90 0 -34 -1 -35 -19 -18 -18
17 -20 16 -27 -6 -15 -48 -30 -157 -20 -151 5 4 7 -1 3 -11 -4 -10 -7 -49 -7
-88 0 -61 -2 -70 -20 -75 -11 -3 -20 -14 -20 -25 0 -15 5 -18 23 -13 12 4 25
10 29 14 5 4 13 79 19 166 6 88 12 161 14 163 1 2 16 -11 33 -28 27 -26 38
-30 85 -30 45 0 61 5 87 26 17 15 37 39 45 55 19 36 19 112 1 147 -17 33 -56
70 -56 53z"/>
<path d="M1778 663 c7 -3 16 -2 19 1 4 3 -2 6 -13 5 -11 0 -14 -3 -6 -6z"/>
<path d="M1673 631 c-44 -32 -88 -94 -80 -114 4 -8 6 -7 6 3 2 28 84 111 126
125 33 12 36 14 14 15 -14 0 -44 -13 -66 -29z"/>
<path d="M1928 628 c40 -43 65 -134 59 -210 -10 -116 -80 -226 -160 -249 -43
-12 -129 7 -149 34 -22 28 -22 30 2 52 11 10 20 23 20 29 0 5 -15 -5 -33 -22
-27 -26 -36 -30 -44 -20 -24 29 -56 104 -63 147 l-8 46 -1 -44 c-1 -58 48
-160 97 -201 74 -61 179 -64 255 -6 81 61 129 195 107 300 -12 58 -66 157 -90
164 -10 3 -7 -4 8 -20z"/>
<path d="M2123 590 c0 -36 2 -50 4 -32 2 17 2 47 0 65 -2 17 -4 3 -4 -33z"/>
<path d="M2301 604 c-1 -32 5 -57 15 -70 8 -10 12 -13 8 -5 -4 8 -10 39 -14
70 l-7 56 -2 -51z"/>
<path d="M1733 614 c-48 -17 -103 -74 -103 -107 0 -16 -3 -18 -9 -9 -7 11 -10
10 -15 -3 -3 -9 -6 -26 -6 -38 0 -18 -2 -19 -11 -7 -13 19 -1 -56 14 -85 7
-13 7 -20 -1 -23 -12 -4 1 -60 19 -76 8 -8 10 0 7 29 -3 38 -2 40 25 38 16 -1
27 3 27 11 0 8 -10 11 -31 8 l-32 -5 5 57 c6 73 20 89 49 53 11 -15 25 -24 31
-21 5 4 -2 18 -17 34 -32 33 -28 60 15 90 42 30 58 26 70 -20 6 -22 15 -38 20
-35 4 3 3 21 -3 40 -15 50 -1 60 51 40 59 -24 73 -13 27 18 -44 30 -71 32
-132 11z"/>
<path d="M2337 609 c4 -13 8 -18 11 -10 2 7 -1 18 -6 23 -8 8 -9 4 -5 -13z"/>
<path d="M1066 561 c-23 -9 -12 -18 29 -22 22 -3 31 0 33 14 4 18 -26 22 -62
8z"/>
<path d="M1872 520 c-24 -32 -27 -40 -14 -40 5 0 15 11 22 25 18 33 26 32 50
-7 16 -27 20 -29 20 -13 0 25 -27 65 -44 65 -7 0 -22 -13 -34 -30z"/>
<path d="M2410 482 c0 -5 14 -24 30 -42 17 -18 30 -37 30 -41 0 -4 3 -15 7
-25 4 -12 3 -15 -6 -10 -6 4 -24 5 -40 1 -25 -5 -28 -10 -25 -35 5 -29 -1 -39
-55 -95 -72 -75 -75 -76 -136 -73 -48 2 -59 6 -61 21 -5 34 -14 31 -14 -5 0
-44 11 -48 134 -48 71 0 99 4 133 21 97 47 129 150 79 253 -23 47 -76 102 -76
78z m56 -143 c4 -8 9 -7 15 2 19 30 8 -56 -12 -97 -15 -32 -34 -51 -75 -74
-58 -32 -68 -32 -77 -1 -6 26 16 45 43 36 16 -5 20 -2 20 17 0 44 35 61 64 32
9 -8 16 -11 16 -6 0 5 -9 17 -20 27 -23 20 -26 45 -8 63 15 15 25 15 34 1z"/>
<path d="M1097 442 c-24 -2 -37 -8 -34 -15 5 -17 65 -16 72 2 7 17 8 17 -38
13z"/>
<path d="M1900 423 c0 -5 14 -8 30 -9 17 -1 30 3 30 7 0 5 -13 9 -30 9 -16 0
-30 -3 -30 -7z"/>
<path d="M577 393 c-26 -28 -83 -141 -89 -177 -2 -10 2 -21 8 -23 6 -2 21 22
32 54 30 81 59 126 78 119 11 -4 14 2 12 24 -3 37 -7 37 -41 3z"/>
<path d="M790 394 c-30 -8 -77 -18 -105 -22 -47 -7 -50 -9 -62 -47 -31 -101
-62 -170 -77 -173 -9 -2 -30 8 -47 22 -32 27 -49 33 -49 16 0 -5 27 -28 60
-50 l60 -40 13 32 c8 18 20 51 27 73 7 22 17 44 22 50 9 10 244 9 261 -2 5 -3
7 3 5 13 -3 17 -15 19 -131 22 -129 3 -140 6 -118 40 4 8 50 23 101 34 90 20
94 20 107 2 11 -15 13 -15 13 -2 0 22 -11 48 -19 47 -3 0 -31 -7 -61 -15z"/>
<path d="M2303 367 c-25 -26 -76 -127 -69 -134 2 -3 14 15 26 39 12 23 33 58
47 76 29 39 26 52 -4 19z"/>
<path d="M2132 340 c0 -14 2 -19 5 -12 2 6 2 18 0 25 -3 6 -5 1 -5 -13z"/>
<path d="M1840 256 c0 -9 5 -16 10 -16 6 0 10 4 10 9 0 6 -4 13 -10 16 -5 3
-10 -1 -10 -9z"/>
<path d="M1762 210 c0 -14 2 -19 5 -12 2 6 2 18 0 25 -3 6 -5 1 -5 -13z"/>
</g>
</svg>
